<svg width="839" height="696" viewBox="0 0 839 696" fill="none" xmlns="http://www.w3.org/2000/svg">
<path fill-rule="evenodd" clip-rule="evenodd" d="M772.022 502.807L798.852 425.473C806.815 402.521 800.776 377.035 783.361 360.097L782.605 359.362C765.097 342.334 756.551 318.104 759.501 293.861L769.564 211.15C774.78 168.28 744.255 129.297 701.385 124.081C699.2 123.815 697.005 123.642 694.805 123.561L662.547 122.378L596.718 59.542C574.286 38.1297 540.829 33.0988 513.092 46.9674L438.551 84.2381C426.48 90.2735 413.053 93.0822 399.575 92.391L339.07 89.2882C306.79 87.6328 278.161 109.855 271.757 141.537L261.615 191.712C260.949 195.011 260.496 198.349 260.259 201.706L250.748 336.626C250.292 343.092 248.622 349.415 245.825 355.264L219.669 409.954C211.531 426.968 209.817 446.351 214.843 464.53L225.426 502.807H772.022Z" fill="#C4C4DE"/>
<path fill-rule="evenodd" clip-rule="evenodd" d="M225.425 502.807L155.274 578.956C134.498 601.508 135.938 636.631 158.49 657.407C168.103 666.263 180.532 671.443 193.589 672.036L713.984 695.664C744.615 697.055 770.574 673.351 771.965 642.719C772.003 641.881 772.022 641.041 772.022 640.201V502.807H225.425Z" fill="#8B8BB5"/>
<mask id="mask0" mask-type="alpha" maskUnits="userSpaceOnUse" x="331" y="0" width="508" height="320">
<path d="M352.496 251.794V0H331.383V262.351C331.383 268.181 336.109 272.907 341.939 272.907H514.145C526.439 272.907 538.501 276.258 549.033 282.599L588.446 306.327C602.266 314.647 618.092 319.044 634.223 319.044H838.881V297.93H634.223C621.93 297.93 609.868 294.58 599.336 288.239L559.923 264.511C546.103 256.191 530.277 251.794 514.145 251.794H352.496Z" fill="white"/>
</mask>
<g mask="url(#mask0)">
<path d="M352.496 251.794V0H331.383V262.351C331.383 268.181 336.109 272.907 341.939 272.907H514.145C526.439 272.907 538.501 276.258 549.033 282.599L588.446 306.327C602.266 314.647 618.092 319.044 634.223 319.044H838.881V297.93H634.223C621.93 297.93 609.868 294.58 599.336 288.239L559.923 264.511C546.103 256.191 530.277 251.794 514.145 251.794H352.496Z" fill="#FF8484"/>
<path fill-rule="evenodd" clip-rule="evenodd" d="M746.217 291.674H858.821V329.991H746.217V291.674ZM307.532 245.538H420.136V283.855H307.532V245.538ZM325.127 154.439V58.6475H372.436L363.443 154.439H325.127ZM549.552 237.719L640.26 280.727V319.043C637.657 328.995 626.97 333.166 608.2 331.555C589.429 329.944 560.627 322.385 521.792 308.878L549.552 237.719Z" fill="#DE6262"/>
</g>
<path fill-rule="evenodd" clip-rule="evenodd" d="M462.362 319.825L202.748 70.7681L180.071 391.767L457.28 342.503L462.362 319.825Z" fill="#FFEECD"/>
<mask id="mask1" mask-type="alpha" maskUnits="userSpaceOnUse" x="51" y="57" width="226" height="328">
<path d="M99.2989 379.99C150.326 400.582 220.502 346.051 256.042 258.191C291.582 170.331 279.027 82.4138 228 61.8221C176.973 41.2304 106.797 95.7619 71.2572 183.622C35.7173 271.481 48.272 359.399 99.2989 379.99Z" fill="white"/>
</mask>
<g mask="url(#mask1)">
<path d="M178.535 391.866C233.349 387.048 271.119 306.6 262.898 212.182C254.677 117.764 203.577 45.1284 148.763 49.9468C93.9495 54.7652 56.1788 135.212 64.4 229.631C72.6213 324.049 123.721 396.684 178.535 391.866Z" fill="#F5CB76"/>
<path d="M270.779 331.946V346.022H186.327V331.946H146.446V316.307H228.553H312.224V331.946H270.779ZM269.215 331.946H228.553H187.891V344.458H269.215V331.946ZM186.327 330.382H228.553V317.871H148.01V330.382H186.327ZM230.117 330.382H270.779H310.66V317.871H230.117V330.382ZM167.559 109.085H126.115V121.596H206.658V109.085H167.559ZM167.559 107.521H208.222V123.16H126.115H41.6622V107.521H83.8885V93.4453H167.559V107.521ZM124.551 121.596V109.085H83.8885H43.2261V121.596H124.551ZM165.995 107.521V95.0093H85.4525V107.521H124.551H165.995ZM82.3246 144.273H165.995V159.913H82.3246H0.217773V144.273H82.3246ZM82.3246 158.349V145.837H1.78171V158.349H82.3246ZM83.8885 158.349H164.431V145.837H83.8885V158.349Z" fill="white"/>
<path d="M311.442 367.917H229.335V381.992H311.442V367.917Z" stroke="white" stroke-width="2"/>
<path d="M352.886 331.946H270.779V346.021H352.886V331.946Z" stroke="white" stroke-width="2"/>
</g>
<path fill-rule="evenodd" clip-rule="evenodd" d="M447.478 351.886C433.959 374.444 433.959 387.517 447.478 391.106C460.996 394.694 472.474 383.672 481.911 358.038L447.478 351.886Z" fill="#353535"/>
<path d="M463.535 627.922C555.307 627.922 629.703 618.819 629.703 607.59C629.703 596.362 555.307 587.259 463.535 587.259C371.762 587.259 297.366 596.362 297.366 607.59C297.366 618.819 371.762 627.922 463.535 627.922Z" fill="#353535"/>
<mask id="mask2" mask-type="alpha" maskUnits="userSpaceOnUse" x="187" y="331" width="535" height="328">
<path d="M664.419 598.039L682.372 610.726C682.497 610.814 682.619 610.909 682.735 611.008C684.8 612.778 685.039 615.887 683.269 617.952C681.148 620.427 677.705 621.312 674.653 620.168C654.339 612.552 642.614 607.057 639.479 603.681L591.388 561.845L530.394 546.597L526.484 626.358C521.528 626.792 517.748 627.053 515.146 627.14C491.686 627.922 472.66 628.209 460.19 628.402C447.683 628.596 432.985 628.402 411.68 627.747C409.695 627.685 405.653 627.249 399.552 626.436L407.746 540.921L357.362 592.075C353.348 596.151 348.899 599.773 344.094 602.878L298.339 632.448C293.095 635.837 287.264 638.214 281.146 639.458L187.891 658.418C186.526 647.304 191.087 637.268 201.576 628.313C210.729 620.497 241.22 615.199 262.96 613.846C265.038 613.717 282.949 598.987 316.692 569.656C317.881 568.623 318.997 567.509 320.034 566.322L377.635 500.373C391.534 484.46 411.385 474.991 432.499 474.205L462.363 473.092L469.04 442.955H452.777C440.684 442.955 430.882 433.152 430.882 421.059C430.882 418.653 431.278 416.264 432.055 413.987L448.265 366.495C455.397 345.599 475.03 331.555 497.108 331.555H508.045C526.609 331.555 541.658 346.605 541.658 365.169C541.658 369.057 540.984 372.915 539.665 376.572L503.025 478.174L602.138 514.451C615.566 519.366 627.39 527.869 636.322 539.035L663.329 572.793C686.788 571.75 699.56 573.053 701.645 576.703C703.377 579.733 709.513 586.449 720.053 596.849C722.145 598.914 722.168 602.284 720.103 604.376C719.386 605.103 718.476 605.608 717.48 605.831C711.428 607.19 705.087 605.712 700.259 601.818L695.781 598.207C679.727 599.082 669.562 599.082 665.284 598.207C664.994 598.148 664.706 598.092 664.419 598.039Z" fill="white"/>
</mask>
<g mask="url(#mask2)">
<path d="M664.419 598.039L682.372 610.726C682.497 610.814 682.619 610.909 682.735 611.008C684.8 612.778 685.039 615.887 683.269 617.952C681.148 620.427 677.705 621.312 674.653 620.168C654.339 612.552 642.614 607.057 639.479 603.681L591.388 561.845L530.394 546.597L526.484 626.358C521.528 626.792 517.748 627.053 515.146 627.14C491.686 627.922 472.66 628.209 460.19 628.402C447.683 628.596 432.985 628.402 411.68 627.747C409.695 627.685 405.653 627.249 399.552 626.436L407.746 540.921L357.362 592.075C353.348 596.151 348.899 599.773 344.094 602.878L298.339 632.448C293.095 635.837 287.264 638.214 281.146 639.458L187.891 658.418C186.526 647.304 191.087 637.268 201.576 628.313C210.729 620.497 241.22 615.199 262.96 613.846C265.038 613.717 282.949 598.987 316.692 569.656C317.881 568.623 318.997 567.509 320.034 566.322L377.635 500.373C391.534 484.46 411.385 474.991 432.499 474.205L462.363 473.092L469.04 442.955H452.777C440.684 442.955 430.882 433.152 430.882 421.059C430.882 418.653 431.278 416.264 432.055 413.987L448.265 366.495C455.397 345.599 475.03 331.555 497.108 331.555H508.045C526.609 331.555 541.658 346.605 541.658 365.169C541.658 369.057 540.984 372.915 539.665 376.572L503.025 478.174L602.138 514.451C615.566 519.366 627.39 527.869 636.322 539.035L663.329 572.793C686.788 571.75 699.56 573.053 701.645 576.703C703.377 579.733 709.513 586.449 720.053 596.849C722.145 598.914 722.168 602.284 720.103 604.376C719.386 605.103 718.476 605.608 717.48 605.831C711.428 607.19 705.087 605.712 700.259 601.818L695.781 598.207C679.727 599.082 669.562 599.082 665.284 598.207C664.994 598.148 664.706 598.092 664.419 598.039Z" fill="#FFCDCD"/>
<path fill-rule="evenodd" clip-rule="evenodd" d="M444.377 471.919C451.415 483.909 463.145 490.686 479.566 492.25C495.987 493.814 507.977 489.904 515.536 480.52L598.425 497.259L563.628 561.063L546.033 558.717L530.64 627.512L386.554 637.305L408.167 541.982L386.554 582.462L326.3 515.54C352.331 489.949 375.363 474.497 395.395 469.184C415.428 463.872 431.755 464.784 444.377 471.919Z" fill="#FFF9D6"/>
</g>
<path fill-rule="evenodd" clip-rule="evenodd" d="M530.153 371.736L546.031 375.536C546.171 402.515 539.086 414.237 524.778 410.701C517.623 408.933 513.573 404.582 512.625 397.646C506.613 402.553 500.355 403.897 493.851 401.677C480.66 397.174 480.047 383.965 492.012 362.052L530.394 371.203C530.313 371.382 530.233 371.559 530.153 371.736Z" fill="#353535"/>
<mask id="mask3" mask-type="alpha" maskUnits="userSpaceOnUse" x="441" y="323" width="113" height="56">
<path d="M441.249 350.296L553.071 378.473C548.435 374.105 546.219 370.77 546.422 368.469C548.728 342.389 534.26 334.149 504.559 327.701C474.714 321.221 465.607 320.491 452.884 342.616C451.808 344.487 447.93 347.047 441.249 350.296Z" fill="white"/>
</mask>
<g mask="url(#mask3)">
<path d="M441.249 350.296L553.071 378.473C548.435 374.105 546.219 370.77 546.422 368.469C548.728 342.389 534.26 334.149 504.559 327.701C474.714 321.221 465.607 320.491 452.884 342.616C451.808 344.487 447.93 347.047 441.249 350.296Z" fill="#3C3CA0"/>
<path fill-rule="evenodd" clip-rule="evenodd" d="M463.926 341.721L548.769 364.398L551.115 355.405L467.054 329.991L463.926 341.721Z" fill="#26266F"/>
</g>
<path d="M459.625 346.413C468.047 346.413 474.874 339.586 474.874 331.164C474.874 322.743 468.047 315.916 459.625 315.916C451.204 315.916 444.377 322.743 444.377 331.164C444.377 339.586 451.204 346.413 459.625 346.413Z" fill="#F5CB76"/>
<path d="M459.625 342.503C466.319 342.503 471.746 337.426 471.746 331.164C471.746 324.902 466.319 319.826 459.625 319.826C452.931 319.826 447.505 324.902 447.505 331.164C447.505 337.426 452.931 342.503 459.625 342.503Z" fill="#FFEECD"/>
<path d="M454.802 370.556C453.145 366.641 450.746 364.789 447.505 364.789V362.443C451.55 362.443 454.624 364.665 456.642 368.929C464.489 364.252 471.079 365.958 475.88 373.96C476.213 374.515 476.033 375.236 475.477 375.569C474.922 375.902 474.201 375.722 473.868 375.167C469.57 368.002 464.139 366.807 456.979 371.483L440.758 398.927L450.268 400.781C450.904 400.905 451.319 401.521 451.195 402.157C451.071 402.793 450.455 403.208 449.819 403.084L438.679 400.912C437.884 400.757 437.481 399.862 437.894 399.164L454.802 370.556ZM463.926 381.601C462.199 381.601 460.799 380.201 460.799 378.473C460.799 376.746 462.199 375.345 463.926 375.345C465.654 375.345 467.054 376.746 467.054 378.473C467.054 380.201 465.654 381.601 463.926 381.601ZM447.505 376.909C445.778 376.909 444.377 375.509 444.377 373.781C444.377 372.054 445.778 370.654 447.505 370.654C449.233 370.654 450.633 372.054 450.633 373.781C450.633 375.509 449.233 376.909 447.505 376.909ZM442.532 416.528C438.973 415.557 436.739 412.611 437.542 409.948C438.345 407.285 441.881 405.914 445.44 406.885C448.999 407.857 451.234 410.803 450.431 413.466C449.628 416.129 446.092 417.5 442.532 416.528ZM433.502 426.941C433.726 426.333 434.4 426.022 435.008 426.246C435.616 426.47 435.927 427.144 435.703 427.752L432.966 435.181C432.742 435.788 432.068 436.1 431.46 435.876C430.852 435.652 430.541 434.977 430.765 434.37L433.502 426.941ZM438.194 428.505C438.418 427.897 439.092 427.586 439.7 427.81C440.308 428.034 440.619 428.708 440.395 429.316L437.658 436.745C437.434 437.352 436.76 437.664 436.152 437.44C435.544 437.216 435.233 436.541 435.457 435.934L438.194 428.505ZM442.886 430.069C443.109 429.461 443.784 429.15 444.392 429.374C445 429.598 445.311 430.272 445.087 430.88L442.35 438.308C442.126 438.916 441.452 439.228 440.844 439.004C440.236 438.78 439.925 438.105 440.149 437.497L442.886 430.069Z" fill="#353535"/>
<path fill-rule="evenodd" clip-rule="evenodd" d="M572.62 121.596V137.236H490.513H406.06V121.596H421.7V105.957H503.806H587.477V121.596H572.62ZM503.806 153.657H587.477V169.297H503.806V153.657ZM313.788 438.294V453.152H229.335V438.294H187.891V422.655H269.997H353.668V438.294H313.788ZM761.074 239.674H803.301V255.313H721.194H636.741V239.674H595.297V224.034H677.404H761.074V239.674ZM699.299 416.79H754.819V432.429H671.148V417.572H615.628V401.933H699.299V416.79Z" fill="#8B8BB5"/>
<path d="M83.1068 94.2275H1V108.303H83.1068V94.2275Z" stroke="white" stroke-width="2"/>
<path d="M138.211 235.786V243.155H131.423V248.682H122.696V243.155H98.7461V235.786L122.696 214.745H131.423V235.786H138.211ZM108.152 235.786H122.696V223.471L108.152 235.786ZM160.367 249.167C146.889 249.167 140.489 242.961 140.489 231.665C140.489 220.417 146.889 214.26 160.367 214.26C173.796 214.26 180.245 220.465 180.245 231.665C180.245 242.913 173.796 249.167 160.367 249.167ZM160.367 241.846C168.027 241.846 171.518 238.016 171.518 231.665C171.518 225.362 168.027 221.581 160.367 221.581C152.707 221.581 149.216 225.314 149.216 231.665C149.216 238.064 152.707 241.846 160.367 241.846ZM222.569 235.786V243.155H215.782V248.682H207.055V243.155H183.105V235.786L207.055 214.745H215.782V235.786H222.569ZM192.511 235.786H207.055V223.471L192.511 235.786Z" fill="white"/>
<path fill-rule="evenodd" clip-rule="evenodd" d="M503.024 263.524H510.062V279.163H503.024V263.524ZM679.75 308.878H686.787V324.518H679.75V308.878Z" fill="#8B8BB5"/>
<path fill-rule="evenodd" clip-rule="evenodd" d="M579.658 613.846H452.979V628.313H441.249V579.831C441.249 576.592 443.875 573.966 447.114 573.966C450.353 573.966 452.979 576.592 452.979 579.831V602.117H579.658V579.831C579.658 576.592 582.283 573.966 585.522 573.966C588.761 573.966 591.387 576.592 591.387 579.831V620.493L579.658 622.057V613.846Z" fill="#FF8484"/>
<path d="M224.742 639.687C219.578 641.236 216.042 645.989 216.042 651.381C216.042 652.028 216.567 652.553 217.215 652.553C217.863 652.553 218.388 652.028 218.388 651.381C218.388 647.025 221.245 643.186 225.416 641.934L237.101 638.429C237.452 638.323 237.734 638.06 237.862 637.717C238.328 636.478 241.578 634.353 247.411 631.728C252.822 629.293 255.853 628.889 259.499 629.355L259.997 629.419C260.191 629.444 260.341 629.462 260.485 629.478C261.128 629.55 261.708 629.086 261.78 628.442C261.852 627.798 261.388 627.218 260.744 627.147C260.616 627.132 260.478 627.116 260.296 627.092C260.24 627.085 259.9 627.041 259.796 627.027C255.732 626.508 252.266 626.971 246.448 629.589C240.556 632.24 237.104 634.39 235.943 636.327L224.742 639.687Z" fill="#353535"/>
<path fill-rule="evenodd" clip-rule="evenodd" d="M506.935 408.703C522.792 412.822 532.015 409.746 534.604 399.477C536.568 391.689 532.457 385.264 523.439 387.442C521.524 387.905 517.847 391.432 512.408 398.023L506.935 408.703Z" fill="#FFCDCD"/>
<path d="M677.176 586.075L689.097 584.402C695.364 583.522 701.709 585.348 706.55 589.425L720.83 601.45C721.325 601.867 722.065 601.804 722.482 601.308C722.9 600.813 722.836 600.073 722.341 599.655L708.061 587.63C702.711 583.125 695.697 581.106 688.771 582.079L676.85 583.752C676.208 583.842 675.761 584.435 675.851 585.076C675.941 585.718 676.534 586.165 677.176 586.075Z" fill="#353535"/>
<path d="M489.731 122.378H421.7V120.814H504.589V105.957H506.152V120.814H572.62V122.378H491.295V137.236H489.731V122.378ZM720.412 240.456H637.132C636.701 240.456 636.35 240.106 636.35 239.674C636.35 239.242 636.701 238.892 637.132 238.892H678.186V224.034H679.75V238.892H761.075C761.506 238.892 761.857 239.242 761.857 239.674C761.857 240.106 761.506 240.456 761.075 240.456H721.976V255.313H720.412V240.456ZM671.148 417.963C670.716 417.963 670.366 417.613 670.366 417.181C670.366 416.749 670.716 416.399 671.148 416.399H699.299C699.731 416.399 700.081 416.749 700.081 417.181C700.081 417.613 699.731 417.963 699.299 417.963H671.148ZM269.998 437.512V422.655H271.562V437.512H313.788V439.076H230.117V437.512H269.998Z" fill="#353535"/>
</svg>
