<svg width="60" height="70" viewBox="0 0 60 70" fill="none" xmlns="http://www.w3.org/2000/svg">
<rect width="60" height="70" rx="5" fill="#C4C4C4" fill-opacity="0.4"/>
<path d="M43.3335 25.0002H39.7002C39.8835 24.4835 40.0002 23.9168 40.0002 23.3335C40.0002 20.5668 37.7668 18.3335 35.0002 18.3335C33.2502 18.3335 31.7335 19.2335 30.8335 20.5835L30.0002 21.7002L29.1668 20.5668C28.2668 19.2335 26.7502 18.3335 25.0002 18.3335C22.2335 18.3335 20.0002 20.5668 20.0002 23.3335C20.0002 23.9168 20.1168 24.4835 20.3002 25.0002H16.6668C14.8168 25.0002 13.3502 26.4835 13.3502 28.3335L13.3335 46.6668C13.3335 48.5168 14.8168 50.0002 16.6668 50.0002H43.3335C45.1835 50.0002 46.6668 48.5168 46.6668 46.6668V28.3335C46.6668 26.4835 45.1835 25.0002 43.3335 25.0002ZM35.0002 21.6668C35.9168 21.6668 36.6668 22.4168 36.6668 23.3335C36.6668 24.2502 35.9168 25.0002 35.0002 25.0002C34.0835 25.0002 33.3335 24.2502 33.3335 23.3335C33.3335 22.4168 34.0835 21.6668 35.0002 21.6668ZM25.0002 21.6668C25.9168 21.6668 26.6668 22.4168 26.6668 23.3335C26.6668 24.2502 25.9168 25.0002 25.0002 25.0002C24.0835 25.0002 23.3335 24.2502 23.3335 23.3335C23.3335 22.4168 24.0835 21.6668 25.0002 21.6668ZM43.3335 46.6668H16.6668V43.3335H43.3335V46.6668ZM43.3335 38.3335H16.6668V28.3335H25.1335L21.6668 33.0502L24.3668 35.0002L28.3335 29.6002L30.0002 27.3335L31.6668 29.6002L35.6335 35.0002L38.3335 33.0502L34.8668 28.3335H43.3335V38.3335Z" fill="black" fill-opacity="0.31"/>
</svg>
