<svg width="45" height="45" viewBox="0 0 45 45" fill="none" xmlns="http://www.w3.org/2000/svg">
<path d="M22.5 0C10.0937 0 0 10.0937 0 22.5C0 34.9063 10.0937 45 22.5 45C34.9063 45 45 34.9063 45 22.5C45 10.0937 34.9063 0 22.5 0ZM22.5 42.1875C11.6441 42.1875 2.81251 33.3559 2.81251 22.5C2.81251 11.6441 11.6441 2.81251 22.5 2.81251C33.3559 2.81251 42.1875 11.6441 42.1875 22.5C42.1875 33.3559 33.3559 42.1875 22.5 42.1875Z" fill="#1DB3C3"/>
<path d="M23.9063 8.4375H21.0938V23.0822L29.9432 31.9317L31.9318 29.9432L23.9063 21.9177V8.4375Z" fill="#1DB3C3"/>
</svg>
