<svg width="22" height="22" viewBox="0 0 22 22" fill="none" xmlns="http://www.w3.org/2000/svg">
<path d="M13.3499 11L20.5166 3.84998C20.8304 3.53614 21.0067 3.11049 21.0067 2.66665C21.0067 2.22281 20.8304 1.79716 20.5166 1.48332C20.2027 1.16948 19.7771 0.993164 19.3332 0.993164C18.8894 0.993164 18.4637 1.16948 18.1499 1.48332L10.9999 8.64998L3.8499 1.48332C3.53606 1.16948 3.1104 0.993164 2.66657 0.993164C2.22273 0.993164 1.79707 1.16948 1.48323 1.48332C1.16939 1.79716 0.993079 2.22281 0.993079 2.66665C0.993079 3.11049 1.16939 3.53614 1.48323 3.84998L8.6499 11L1.48323 18.15C1.32702 18.3049 1.20303 18.4893 1.11841 18.6924C1.0338 18.8955 0.990234 19.1133 0.990234 19.3333C0.990234 19.5533 1.0338 19.7712 1.11841 19.9743C1.20303 20.1774 1.32702 20.3617 1.48323 20.5166C1.63817 20.6729 1.8225 20.7969 2.0256 20.8815C2.2287 20.9661 2.44655 21.0096 2.66657 21.0096C2.88658 21.0096 3.10443 20.9661 3.30753 20.8815C3.51063 20.7969 3.69496 20.6729 3.8499 20.5166L10.9999 13.35L18.1499 20.5166C18.3048 20.6729 18.4892 20.7969 18.6923 20.8815C18.8954 20.9661 19.1132 21.0096 19.3332 21.0096C19.5533 21.0096 19.7711 20.9661 19.9742 20.8815C20.1773 20.7969 20.3616 20.6729 20.5166 20.5166C20.6728 20.3617 20.7968 20.1774 20.8814 19.9743C20.966 19.7712 21.0096 19.5533 21.0096 19.3333C21.0096 19.1133 20.966 18.8955 20.8814 18.6924C20.7968 18.4893 20.6728 18.3049 20.5166 18.15L13.3499 11Z" fill="#6860BC" fill-opacity="0.5"/>
</svg>
