<svg width="45" height="45" viewBox="0 0 45 45" fill="none" xmlns="http://www.w3.org/2000/svg">
<path d="M22.5 30C23.4946 30 24.4484 30.3951 25.1516 31.0983C25.8549 31.8016 26.25 32.7554 26.25 33.75C26.25 34.7446 25.8549 35.6984 25.1516 36.4016C24.4484 37.1049 23.4946 37.5 22.5 37.5C21.5054 37.5 20.5516 37.1049 19.8484 36.4016C19.1451 35.6984 18.75 34.7446 18.75 33.75C18.75 32.7554 19.1451 31.8016 19.8484 31.0983C20.5516 30.3951 21.5054 30 22.5 30ZM22.5 18.75C23.4946 18.75 24.4484 19.1451 25.1516 19.8483C25.8549 20.5516 26.25 21.5054 26.25 22.5C26.25 23.4946 25.8549 24.4484 25.1516 25.1516C24.4484 25.8549 23.4946 26.25 22.5 26.25C21.5054 26.25 20.5516 25.8549 19.8484 25.1516C19.1451 24.4484 18.75 23.4946 18.75 22.5C18.75 21.5054 19.1451 20.5516 19.8484 19.8483C20.5516 19.1451 21.5054 18.75 22.5 18.75ZM22.5 7.5C23.4946 7.5 24.4484 7.89509 25.1516 8.59835C25.8549 9.30161 26.25 10.2554 26.25 11.25C26.25 12.2446 25.8549 13.1984 25.1516 13.9016C24.4484 14.6049 23.4946 15 22.5 15C21.5054 15 20.5516 14.6049 19.8484 13.9016C19.1451 13.1984 18.75 12.2446 18.75 11.25C18.75 10.2554 19.1451 9.30161 19.8484 8.59835C20.5516 7.89509 21.5054 7.5 22.5 7.5Z" fill="#1A1A1A" fill-opacity="0.9"/>
</svg>
