<svg width="25" height="25" viewBox="0 0 25 25" fill="none" xmlns="http://www.w3.org/2000/svg">
<g clip-path="url(#clip0)">
<path d="M23.62 4.41806e-08H1.37882C0.617217 0.000381514 -0.000191644 0.618172 -9.09494e-07 1.37997V23.6212C0.00038056 24.3828 0.618171 25.0002 1.37997 25H23.62C24.382 25.0002 24.9998 24.3826 25 23.6206C25 23.6208 25 23.6204 25 23.6206V1.37882C24.9996 0.617218 24.3818 -0.000190691 23.62 4.41806e-08Z" fill="#4267B2"/>
<path d="M17.2607 24.9998V15.3318H20.52L21.0083 11.5476H17.2607V9.13752C17.2607 8.04442 17.5642 7.2996 19.1317 7.2996H21.1182V3.92416C20.7726 3.8782 19.5868 3.77539 18.207 3.77539C15.3261 3.77539 13.3545 5.5332 13.3545 8.76273V11.5476H10.1074V15.3318H13.3545V24.9998H17.2607Z" fill="white"/>
</g>
<defs>
<clipPath id="clip0">
<rect width="25" height="25" fill="white"/>
</clipPath>
</defs>
</svg>
