<svg width="25" height="25" viewBox="0 0 25 25" fill="none" xmlns="http://www.w3.org/2000/svg">
<g clip-path="url(#clip0)">
<path d="M7.58418 2.79004C5.06802 2.79004 3.021 4.96045 3.021 7.62822C3.021 10.296 5.06802 12.4664 7.58418 12.4664C10.1003 12.4664 12.1474 10.296 12.1474 7.62822C12.1474 4.96045 10.1004 2.79004 7.58418 2.79004Z" fill="#6860BC"/>
<path d="M17.959 3.48242C17.9487 3.48242 17.9383 3.48247 17.928 3.48252C16.872 3.49126 15.8857 3.93711 15.1507 4.73804C14.4287 5.5248 14.036 6.56274 14.0451 7.6606C14.0542 8.75845 14.4639 9.78975 15.1988 10.5646C15.9395 11.3454 16.9207 11.7742 17.9649 11.7742C17.9754 11.7742 17.9859 11.7741 17.9965 11.7741C19.0524 11.7653 20.0388 11.3194 20.7737 10.5186C21.4958 9.73179 21.8884 8.69385 21.8794 7.59595C21.8606 5.32085 20.105 3.48242 17.959 3.48242Z" fill="#6860BC"/>
<path d="M18.1514 12.5664H17.7725C16.0078 12.5664 14.3975 13.2373 13.1816 14.3369C13.4858 14.5703 13.7754 14.8247 14.0498 15.0991C14.8594 15.9087 15.4951 16.8521 15.9395 17.9028C16.3398 18.8491 16.5684 19.8462 16.6216 20.873H25V19.4146C25 15.6387 21.9277 12.5664 18.1514 12.5664Z" fill="#6860BC"/>
<path d="M15.1538 20.873C15.0156 18.647 13.8872 16.689 12.2031 15.4341C10.978 14.521 9.4585 13.9805 7.8125 13.9805H7.35645C3.29346 13.9805 0 17.2739 0 21.3369V22.21H15.1685V21.3369C15.1685 21.1812 15.1636 21.0264 15.1538 20.873Z" fill="#6860BC"/>
</g>
<defs>
<clipPath id="clip0">
<rect width="25" height="25" fill="white"/>
</clipPath>
</defs>
</svg>
