<svg width="29" height="29" viewBox="0 0 29 29" fill="none" xmlns="http://www.w3.org/2000/svg">
<path d="M27.8112 15.7496L24.5491 13.8567C24.8348 13.6067 25.1086 13.2852 25.311 12.9281C26.2992 11.2256 25.7158 9.0351 24.0014 8.04697C22.9775 7.45172 21.775 7.45172 20.7631 7.8803L20.775 7.8684L19.7273 8.3327L19.5963 7.1898L19.5844 7.20171C19.4773 6.11834 18.8463 5.07069 17.8224 4.47544C16.108 3.49326 13.9293 4.08257 12.9292 5.785C12.7268 6.14215 12.5958 6.53502 12.5244 6.91599L9.25037 5.03498C8.10743 4.38019 6.65495 4.76116 6.00014 5.90405L4.2143 8.99938C3.88094 9.57083 4.08334 10.297 4.65481 10.6185L6.71448 11.809L11.7386 14.7138H4V26.619C4 27.9404 5.0715 29 6.38112 29H25.4301C26.7516 29 27.8112 27.9404 27.8112 26.619V20.5116L28.6803 18.9997C29.3351 17.8568 28.9541 16.4044 27.8112 15.7496ZM21.1917 10.5471C21.5131 9.95179 22.2513 9.78512 22.8108 10.1066C23.3823 10.4399 23.5847 11.1423 23.2513 11.7376C22.918 12.3328 22.1917 12.4995 21.6203 12.1781C21.0607 11.8447 20.8583 11.1423 21.1917 10.5471ZM18.37 13.0471L26.6206 17.8092L25.4301 19.8688L17.1795 15.1067L18.37 13.0471ZM14.715 26.619H6.38112V17.0949H14.715V26.619ZM15.1198 13.9162L6.86925 9.15415L8.05981 7.09456L16.3104 11.8566L15.1198 13.9162ZM15.4413 8.60651C14.8698 8.27317 14.6793 7.57077 15.0008 6.97551C15.3103 6.38026 16.0604 6.21358 16.6318 6.53502C17.2033 6.86837 17.3938 7.57077 17.0604 8.16603C16.739 8.76128 16.0127 8.92795 15.4413 8.60651ZM17.0962 26.619V17.8092L25.4301 22.6189V26.619H17.0962Z" fill="#6860BC"/>
</svg>
