<svg width="32" height="32" viewBox="0 0 32 32" fill="none" xmlns="http://www.w3.org/2000/svg">
<path d="M30 15.305L25.89 12.92C26.25 12.605 26.595 12.2 26.85 11.75C28.095 9.60501 27.36 6.84501 25.2 5.60001C23.91 4.85001 22.395 4.85001 21.12 5.39001L21.135 5.37501L19.815 5.96001L19.65 4.52001L19.635 4.53501C19.5 3.17001 18.705 1.85001 17.415 1.10001C15.255 -0.137494 12.51 0.605006 11.25 2.75001C10.995 3.20001 10.83 3.69501 10.74 4.17501L6.615 1.80501C5.175 0.980006 3.345 1.46001 2.52 2.90001L0.27 6.80001C-0.15 7.52001 0.105 8.43501 0.825 8.84001L3.42 10.34L9.75 14H0V29C0 30.665 1.35 32 3 32H27C28.665 32 30 30.665 30 29V21.305L31.095 19.4C31.92 17.96 31.44 16.13 30 15.305ZM21.66 8.75001C22.065 8.00001 22.995 7.79001 23.7 8.19501C24.42 8.61501 24.675 9.50001 24.255 10.25C23.835 11 22.92 11.21 22.2 10.805C21.495 10.385 21.24 9.50001 21.66 8.75001ZM18.105 11.9L28.5 17.9L27 20.495L16.605 14.495L18.105 11.9ZM13.5 29H3V17H13.5V29ZM14.01 12.995L3.615 6.99501L5.115 4.40001L15.51 10.4L14.01 12.995ZM14.415 6.30501C13.695 5.88501 13.455 5.00001 13.86 4.25001C14.25 3.50001 15.195 3.29001 15.915 3.69501C16.635 4.11501 16.875 5.00001 16.455 5.75001C16.05 6.50001 15.135 6.71001 14.415 6.30501ZM16.5 29V17.9L27 23.96V29H16.5Z" fill="black"/>
</svg>
