<svg width="25" height="25" viewBox="0 0 25 25" fill="none" xmlns="http://www.w3.org/2000/svg">
<g clip-path="url(#clip0)">
<path d="M23.3696 4.86953H21.5498C21.7898 4.48965 21.9482 4.06324 21.9934 3.61226C22.1377 2.171 21.3787 0.879007 20.0864 0.306204C18.8986 -0.22031 17.5638 -0.00507528 16.6026 0.866702L14.3048 2.94922C13.8573 2.45977 13.214 2.15215 12.5 2.15215C11.7848 2.15215 11.1404 2.46075 10.6928 2.95171L8.39204 0.866458C7.4293 -0.00531938 6.09502 -0.219724 4.90776 0.306497C3.61587 0.879349 2.85669 2.17178 3.00142 3.61299C3.04668 4.06363 3.20498 4.48985 3.44497 4.86953H1.63042C0.729932 4.86953 0 5.59952 0 6.49996V8.94561C0 9.3958 0.36499 9.76084 0.815234 9.76084H24.1848C24.635 9.76084 25 9.39585 25 8.94561V6.49996C25 5.59952 24.2701 4.86953 23.3696 4.86953ZM10.0543 4.59781V4.86953H6.21924C5.20596 4.86953 4.4085 3.92491 4.66157 2.86992C4.77305 2.40533 5.1084 2.00928 5.54214 1.80879C6.13774 1.5335 6.79751 1.62188 7.29775 2.07466L10.055 4.57378C10.0549 4.58184 10.0543 4.58975 10.0543 4.59781ZM20.3757 3.3958C20.3149 4.24312 19.5496 4.86963 18.7001 4.86963H14.9457V4.5979C14.9457 4.58828 14.9451 4.57876 14.945 4.56914C15.5696 4.00293 16.9246 2.77481 17.6595 2.10865C18.0772 1.73008 18.6616 1.55337 19.2019 1.7145C19.9771 1.94576 20.4324 2.60503 20.3757 3.3958Z" fill="#6860BC"/>
<path d="M1.63037 11.3911V23.3477C1.63037 24.2481 2.3603 24.9781 3.26079 24.9781H10.8695V11.3911H1.63037Z" fill="#6860BC"/>
<path d="M14.1304 11.3911V24.9781H21.7391C22.6395 24.9781 23.3695 24.2481 23.3695 23.3477V11.3911H14.1304Z" fill="#6860BC"/>
</g>
<defs>
<clipPath id="clip0">
<rect width="25" height="25" fill="white"/>
</clipPath>
</defs>
</svg>
