<svg width="22" height="22" viewBox="0 0 22 22" fill="none" xmlns="http://www.w3.org/2000/svg">
<path d="M18.7773 0H3.22266C1.44583 0 0 1.44583 0 3.22266V18.7773C0 20.5542 1.44583 22 3.22266 22H18.7773C20.5542 22 22 20.5542 22 18.7773V3.22266C22 1.44583 20.5542 0 18.7773 0ZM7.77734 17.4453H5.19922V8.42188H7.77734V17.4453ZM7.77734 7.13281H5.19922V4.55469H7.77734V7.13281ZM16.8008 17.4453H14.2227V12.2891C14.2227 11.5784 13.6443 11 12.9336 11C12.2229 11 11.6445 11.5784 11.6445 12.2891V17.4453H9.06641V8.42188H11.6445V8.90779C12.3199 8.69781 12.7587 8.42188 13.5781 8.42188C15.3266 8.42372 16.8008 9.99225 16.8008 11.8459V17.4453Z" fill="white"/>
</svg>
