<svg width="24" height="24" viewBox="0 0 24 24" fill="none" xmlns="http://www.w3.org/2000/svg">
<g clip-path="url(#clip0)">
<path d="M1.50005 1.63329C-0.385948 3.59229 5.23925e-05 5.67329 5.23925e-05 11.9953C5.23925e-05 17.2453 -0.915948 22.5083 3.87805 23.7473C5.37505 24.1323 18.6391 24.1323 20.1341 23.7453C22.1301 23.2303 23.7541 21.6113 23.9761 18.7883C24.0071 18.3943 24.0071 5.60329 23.9751 5.20129C23.7391 2.19429 21.8881 0.461291 19.4491 0.110291C18.8901 0.0292905 18.7781 0.00529053 15.9101 0.000290535C5.73705 0.00529053 3.50705 -0.44771 1.50005 1.63329Z" fill="url(#paint0_linear)"/>
<path d="M11.998 3.13941C8.36701 3.13941 4.91901 2.81641 3.60201 6.19641C3.05801 7.59241 3.13701 9.40541 3.13701 12.0014C3.13701 14.2794 3.06401 16.4204 3.60201 17.8054C4.91601 21.1874 8.39201 20.8634 11.996 20.8634C15.473 20.8634 19.058 21.2254 20.391 17.8054C20.936 16.3954 20.856 14.6094 20.856 12.0014C20.856 8.53941 21.047 6.30441 19.368 4.62641C17.668 2.92641 15.369 3.13941 11.994 3.13941H11.998ZM11.204 4.73641C18.778 4.72441 19.742 3.88241 19.21 15.5794C19.021 19.7164 15.871 19.2624 11.999 19.2624C4.93901 19.2624 4.73601 19.0604 4.73601 11.9974C4.73601 4.85241 5.29601 4.74041 11.204 4.73441V4.73641ZM16.728 6.20741C16.141 6.20741 15.665 6.68341 15.665 7.27041C15.665 7.85741 16.141 8.33341 16.728 8.33341C17.315 8.33341 17.791 7.85741 17.791 7.27041C17.791 6.68341 17.315 6.20741 16.728 6.20741ZM11.998 7.45041C9.48501 7.45041 7.44801 9.48841 7.44801 12.0014C7.44801 14.5144 9.48501 16.5514 11.998 16.5514C14.511 16.5514 16.547 14.5144 16.547 12.0014C16.547 9.48841 14.511 7.45041 11.998 7.45041ZM11.998 9.04741C15.903 9.04741 15.908 14.9554 11.998 14.9554C8.09401 14.9554 8.08801 9.04741 11.998 9.04741Z" fill="white"/>
</g>
<defs>
<linearGradient id="paint0_linear" x1="1.54607" y1="22.4674" x2="23.8515" y2="3.16227" gradientUnits="userSpaceOnUse">
<stop stop-color="#FFDD55"/>
<stop offset="0.5" stop-color="#FF543E"/>
<stop offset="1" stop-color="#C837AB"/>
</linearGradient>
<clipPath id="clip0">
<rect width="24" height="24" fill="white"/>
</clipPath>
</defs>
</svg>
