<svg width="24" height="17" viewBox="0 0 24 17" fill="none" xmlns="http://www.w3.org/2000/svg">
<path d="M16.7453 10.3404H15.7395L15.383 10.0934C16.6307 9.0506 17.3819 7.6968 17.3819 6.22408C17.3819 2.94019 13.6768 0.27832 9.106 0.27832C4.53514 0.27832 0.830078 2.94019 0.830078 6.22408C0.830078 9.50797 4.53514 12.1698 9.106 12.1698C11.1559 12.1698 13.0402 11.6302 14.4917 10.7337L14.8355 10.9898V11.7125L21.2016 16.277L23.0987 14.914L16.7453 10.3404ZM9.106 10.3404C5.93568 10.3404 3.37651 8.50177 3.37651 6.22408C3.37651 3.9464 5.93568 2.10779 9.106 2.10779C12.2763 2.10779 14.8355 3.9464 14.8355 6.22408C14.8355 8.50177 12.2763 10.3404 9.106 10.3404Z" fill="#6860BC" fill-opacity="0.62"/>
</svg>
