<svg width="25" height="25" viewBox="0 0 25 25" fill="none" xmlns="http://www.w3.org/2000/svg">
<path d="M5.35532 10.5449L2.95703 16.942V16.9425C3.54391 19.2871 4.83387 21.3597 6.65993 22.9231L9.66903 21.7947C6.47288 18.9321 4.89534 14.7214 5.35532 10.5449Z" fill="#6860BC"/>
<path d="M2.14506 19.1074L0.306788 24.009C0.0870747 24.5944 0.659794 25.1735 1.2496 24.9518L5.12778 23.4978C3.82698 22.2353 2.81791 20.7307 2.14506 19.1074Z" fill="#6860BC"/>
<path d="M10.4965 9.94808L7.76279 7.21436C5.54632 12.2142 7.06161 17.9289 11.2435 21.2042L14.1613 20.1101C11.5988 17.4637 10.2128 13.77 10.4965 9.94808Z" fill="#6860BC"/>
<path d="M11.9268 11.3784C12.0391 14.4861 13.3925 17.423 15.6824 19.5395H15.6829L17.8214 18.7378C18.3209 18.5503 18.4576 17.9093 18.0821 17.5338L11.9268 11.3784Z" fill="#6860BC"/>
<path d="M17.276 13.6793C17.5621 13.9653 18.0258 13.9653 18.3118 13.6793C21.0671 10.924 23.75 11.7758 23.7768 11.7847C24.1605 11.9126 24.5753 11.7052 24.7032 11.3215C24.8312 10.9379 24.6237 10.523 24.24 10.3951C24.0956 10.347 20.6644 9.25519 17.2761 12.6436C16.99 12.9295 16.99 13.3933 17.276 13.6793Z" fill="#6860BC"/>
<path d="M12.6151 7.9822C16.0035 4.59422 14.9113 1.16279 14.8634 1.01827C14.7355 0.634501 14.3205 0.427482 13.9367 0.555404C13.5535 0.683326 13.346 1.09785 13.4739 1.48162C13.4827 1.50847 14.3347 4.19141 11.579 6.94662C11.2948 7.23083 11.2919 7.69423 11.579 7.9822C11.8665 8.26968 12.3298 8.26744 12.6151 7.9822Z" fill="#6860BC"/>
<path d="M14.1686 9.53573C13.8826 9.82174 13.8826 10.2854 14.1686 10.5715C14.452 10.8549 14.9125 10.8586 15.2 10.5758C15.5783 10.3873 16.7527 11.0944 17.4053 10.442C18.0509 9.79631 17.365 8.64584 17.5363 8.24264C17.9401 8.07087 19.0901 8.75716 19.7357 8.11159C20.3815 7.46593 19.6955 6.31546 19.8668 5.91222C20.2711 5.7404 21.4205 6.42678 22.0661 5.78117C22.7119 5.1355 22.0259 3.98504 22.1972 3.58179C22.5991 3.41085 23.7514 4.09567 24.3966 3.45069C25.049 2.79824 24.3432 1.6218 24.5304 1.24541C24.8121 0.959097 24.8106 0.498627 24.526 0.214025C24.2401 -0.0719927 23.7763 -0.0719927 23.4903 0.214025C22.913 0.791285 23.026 1.60623 23.1347 2.18886C22.5521 2.08012 21.7372 1.96719 21.1599 2.5444C20.5827 3.12166 20.6956 3.9366 20.8043 4.51923C20.2217 4.41055 19.4067 4.29752 18.8295 4.87483C18.2522 5.45209 18.3652 6.26703 18.474 6.84966C17.8912 6.74092 17.0763 6.62794 16.4991 7.2052C15.9219 7.78246 16.0348 8.5974 16.1435 9.18003C15.5609 9.0714 14.7458 8.95847 14.1686 9.53573Z" fill="#6860BC"/>
<path d="M18.3118 3.32153C18.5978 3.03551 18.5978 2.57182 18.3118 2.2858C18.0257 1.99978 17.5621 1.99978 17.276 2.2858C16.99 2.57182 16.99 3.03551 17.276 3.32153C17.5621 3.60754 18.0257 3.60754 18.3118 3.32153Z" fill="#6860BC"/>
<path d="M22.9726 8.71476C23.3771 8.71476 23.705 8.38686 23.705 7.98238C23.705 7.5779 23.3771 7.25 22.9726 7.25C22.5681 7.25 22.2402 7.5779 22.2402 7.98238C22.2402 8.38686 22.5681 8.71476 22.9726 8.71476Z" fill="#6860BC"/>
<path d="M21.4186 14.715C21.1326 15.001 21.1326 15.4647 21.4186 15.7507C21.7046 16.0367 22.1683 16.0367 22.4543 15.7507C22.7404 15.4647 22.7404 15.001 22.4543 14.715C22.1684 14.429 21.7046 14.429 21.4186 14.715Z" fill="#6860BC"/>
<path d="M11.0613 4.35767C11.3473 4.07165 11.3473 3.60795 11.0613 3.32194C10.7753 3.03592 10.3116 3.03592 10.0255 3.32194C9.73953 3.60791 9.73953 4.07165 10.0255 4.35767C10.3116 4.64369 10.7753 4.64369 11.0613 4.35767Z" fill="#6860BC"/>
</svg>
