<svg width="110" height="120" viewBox="0 0 110 120" fill="none" xmlns="http://www.w3.org/2000/svg">
<path d="M54.4879 30.1914L70.2664 30.1914C72.2608 30.1914 73.8776 28.6887 73.8776 26.835V14.1488C73.8776 12.2951 72.2608 10.7924 70.2664 10.7924L54.4879 10.7924C52.4934 10.7924 50.8766 12.2951 50.8766 14.1488V26.835C50.8766 28.6887 52.4934 30.1914 54.4879 30.1914Z" fill="#F2348A"/>
<path d="M25.0283 5.27232C26.7032 5.27232 31.357 7.48326 38.4162 15.1408C37.1339 15.1929 35.8846 15.2191 34.6684 15.2194C32.0312 15.2347 29.3955 15.0828 26.7754 14.7645C22.9852 14.2752 22.4812 10.0896 22.4361 9.61272C22.3605 8.80658 22.4502 7.99261 22.6992 7.22684C22.9405 6.55584 23.3827 5.80097 24.8302 5.28957C24.8954 5.27568 24.9619 5.2699 25.0283 5.27232ZM25.0283 0.000195306C24.431 -0.00496427 23.8368 0.0921362 23.2686 0.287765C17.2521 2.41243 17.3315 8.36706 17.4994 10.1418C17.915 14.5446 20.7603 19.3005 26.1789 19.9998C28.9975 20.3439 31.8331 20.5088 34.6703 20.4934C38.9568 20.4934 43.0813 20.1785 46.302 19.8349C46.541 19.815 46.7697 19.7233 46.9614 19.5706C47.1532 19.4178 47.3001 19.2103 47.3849 18.9722C47.4789 18.7422 47.5093 18.4885 47.4726 18.2409C47.4358 17.9932 47.3334 17.7618 47.1774 17.5736C38.2804 6.3555 30.2118 0.000674327 25.0315 0.000674327L25.0283 0.000195306Z" fill="#F2348A"/>
<path d="M83.9096 5.27232C83.9754 5.27004 84.0413 5.27567 84.1059 5.28909C85.5547 5.80096 85.9974 6.55584 86.2388 7.22683C86.4879 7.99287 86.5777 8.80721 86.5018 9.61367C86.4567 10.0896 85.9536 14.2752 82.1625 14.7645C79.5427 15.083 76.9072 15.2349 74.2703 15.2194C73.0548 15.2194 71.8052 15.1932 70.5217 15.1408C77.5804 7.48278 82.2342 5.27232 83.9096 5.27232ZM83.9096 0.000195306C78.7288 0.000195306 70.6607 6.35406 61.7641 17.5731C61.6082 17.7615 61.506 17.993 61.4692 18.2407C61.4325 18.4884 61.4628 18.742 61.5566 18.9722C61.6414 19.2103 61.7883 19.4178 61.9801 19.5706C62.1718 19.7233 62.4005 19.815 62.6395 19.8349C65.8607 20.1785 69.9838 20.4934 74.2722 20.4934C77.1092 20.5087 79.9446 20.3439 82.7631 19.9997C88.1812 19.3005 91.0261 14.5445 91.4421 10.1418C91.61 8.36849 91.6894 2.41243 85.6729 0.287765C85.1047 0.0921361 84.5105 -0.00496426 83.9132 0.000195306H83.9096Z" fill="#F2348A"/>
<path d="M6.70951 120L103.29 120L103.29 31.9799L6.70951 31.9799L6.70951 120Z" fill="#F2348A"/>
<path d="M45.4583 120H64.5418L64.5418 32.1558H45.4583L45.4583 120Z" fill="white"/>
<g opacity="0.19">
<path opacity="0.19" d="M6.70959 50.2734L103.291 50.2734V31.9806L6.70959 31.9806V50.2734Z" fill="black"/>
</g>
<path d="M2.28882e-05 36.3281L110 36.3281V18.1441L2.28882e-05 18.1441V36.3281Z" fill="#F2348A"/>
<path d="M41.1492 36.6309L68.8513 36.6309V18.4468L41.1492 18.4468V36.6309Z" fill="white"/>
</svg>
