<svg width="131" height="131" viewBox="0 0 131 131" fill="none" xmlns="http://www.w3.org/2000/svg">
<g clip-path="url(#clip0)">
<path d="M40.3198 68.1087C40.2369 68.1087 40.1539 68.1057 40.07 68.1007L4.00377 65.849C2.63152 65.764 1.4002 64.9795 0.742558 63.7731C0.0859184 62.5668 0.093914 61.1066 0.765545 59.9072C0.954441 59.5694 5.49994 51.5548 14.1562 44.5647C25.8538 35.1198 39.4523 32.0565 53.4806 35.7065C54.645 36.0094 55.6104 36.8209 56.1101 37.9153C56.6099 39.0097 56.5899 40.271 56.0552 41.3484L43.9009 65.886C43.2232 67.2532 41.831 68.1087 40.3198 68.1087Z" fill="#FF5B5B"/>
<path d="M69.3949 131C68.7372 131 68.0796 130.838 67.4829 130.512C66.2766 129.855 65.492 128.624 65.406 127.252L63.1553 91.1859C63.0553 89.5798 63.9279 88.0696 65.3701 87.355L89.9076 75.1997C90.986 74.666 92.2463 74.646 93.3407 75.1457C94.4361 75.6444 95.2467 76.6109 95.5495 77.7753C99.2005 91.8036 96.1372 105.402 86.6914 117.1C79.7022 125.756 71.6866 130.3 71.3488 130.49C70.7421 130.83 70.0685 131 69.3949 131Z" fill="#FF193D"/>
<path d="M124.844 32.2534L99.0026 6.41155C97.9672 5.37612 96.448 4.99033 95.0438 5.40511C77.7443 10.5223 63.5431 18.5479 52.832 29.258C50.5982 31.4928 48.4524 33.9145 46.4555 36.4551C40.6486 43.838 35.7983 52.5672 32.0404 62.4008C29.6467 68.6684 27.6978 75.3827 26.2476 82.3569C23.7149 94.5392 23.579 103.27 23.574 103.636C23.561 104.713 23.9828 105.75 24.7444 106.512C25.494 107.261 26.5114 107.682 27.5708 107.682H27.6198C27.9866 107.678 36.7178 107.542 48.8991 105.009C55.8733 103.559 62.5876 101.61 68.8562 99.2156C78.6888 95.4577 87.418 90.6083 94.7989 84.8025C97.3415 82.8046 99.7632 80.6588 101.998 78.424C112.709 67.7129 120.735 53.5117 125.851 36.2122C126.267 34.808 125.88 33.2888 124.844 32.2534Z" fill="#E1F1FA"/>
<path d="M51.6296 98.9878L32.2683 79.6264C30.839 78.1972 28.5673 78.0603 26.9762 79.3076C25.7398 80.2771 24.5635 81.3185 23.4801 82.4019C10.0085 95.8735 9.59171 116.747 9.58072 117.629C9.56673 118.706 9.9885 119.743 10.7511 120.505C11.5007 121.256 12.5171 121.676 13.5765 121.676C13.5935 121.676 13.6105 121.676 13.6275 121.675C14.509 121.664 35.3835 121.248 48.8542 107.776C49.9376 106.693 50.979 105.516 51.9485 104.28C53.1958 102.689 53.0588 100.417 51.6296 98.9878Z" fill="#FFF261"/>
<path d="M32.3492 61.6011L20.4707 73.4805C19.7212 74.2291 19.2994 75.2456 19.2994 76.306C19.2994 77.3654 19.7212 78.3819 20.4707 79.1314L52.1244 110.785C52.873 111.535 53.8894 111.955 54.9498 111.955C56.0102 111.955 57.0257 111.535 57.7753 110.785L69.6537 98.9066L32.3492 61.6011Z" fill="#1B3B6B"/>
<path d="M84.2038 59.2445C80.9475 59.2445 77.8852 57.9761 75.5825 55.6734C70.8291 50.92 70.8291 43.1863 75.5825 38.4319C77.8852 36.1291 80.9475 34.8608 84.2038 34.8608C87.46 34.8608 90.5223 36.1291 92.825 38.4319C95.1278 40.7346 96.3961 43.7959 96.3961 47.0531C96.3961 50.3094 95.1278 53.3707 92.825 55.6734C90.5223 57.9761 87.46 59.2445 84.2038 59.2445Z" fill="#06CCAB"/>
<path d="M84.2027 63.1535C79.9021 63.1535 75.8593 61.4784 72.819 58.438C66.5414 52.1605 66.5414 41.9461 72.819 35.6685C75.8593 32.6282 79.9031 30.9531 84.2027 30.9531C88.5034 30.9531 92.5461 32.6282 95.5875 35.6685C98.6288 38.7099 100.303 42.7526 100.303 47.0533C100.303 51.3539 98.6288 55.3967 95.5875 58.438C92.5461 61.4784 88.5034 63.1535 84.2027 63.1535ZM84.2027 38.9457C82.0379 38.9457 80.001 39.7893 78.4699 41.3204C75.3096 44.4817 75.3096 49.6249 78.4699 52.7861C80.001 54.3173 82.0379 55.1608 84.2027 55.1608C86.3685 55.1608 88.4044 54.3173 89.9356 52.7861C91.4667 51.255 92.3103 49.2191 92.3103 47.0533C92.3103 44.8875 91.4667 42.8516 89.9356 41.3204C88.4044 39.7893 86.3685 38.9457 84.2027 38.9457Z" fill="#1B3B6B"/>
<path d="M130.086 1.17158C129.323 0.409 128.28 -0.0197641 127.208 0.00122436C126.615 0.00822052 112.488 0.24609 95.0438 5.40526L125.851 36.2123C131.01 18.7679 131.248 4.64068 131.255 4.048C131.269 2.97059 130.847 1.93316 130.086 1.17158Z" fill="#FF5B5B"/>
<path d="M124.844 32.2534L111.924 19.3325L24.7444 106.512C25.494 107.261 26.5104 107.682 27.5698 107.682H27.6198C27.9856 107.678 36.7168 107.542 48.8991 105.009C55.8733 103.559 62.5866 101.61 68.8552 99.2156C78.6888 95.4577 87.418 90.6084 94.7989 84.8026C97.3405 82.8047 99.7632 80.6588 101.997 78.4241C112.708 67.7129 120.734 53.5117 125.85 36.2122C126.267 34.808 125.88 33.2889 124.844 32.2534Z" fill="#F3F5FD"/>
<path d="M51.6296 98.9878L41.9489 89.3071L10.7501 120.505V120.506C11.5006 121.256 12.5171 121.676 13.5765 121.676H13.6265C14.509 121.665 35.3825 121.248 48.8541 107.776C49.9375 106.693 50.979 105.516 51.9474 104.28C53.1957 102.689 53.0598 100.417 51.6296 98.9878Z" fill="#FDBF00"/>
<path d="M51.0019 80.2539L36.297 94.9588L52.1243 110.786C52.8729 111.535 53.8894 111.957 54.9498 111.957C56.0102 111.957 57.0256 111.535 57.7752 110.786L69.6537 98.9067L51.0019 80.2539Z" fill="#001035"/>
<path d="M92.825 38.4321C92.824 38.4321 92.824 38.4321 92.824 38.4321L75.5825 55.6737H75.5835C77.8852 57.9764 80.9475 59.2447 84.2037 59.2447C87.4599 59.2447 90.5223 57.9764 92.825 55.6737C95.1277 53.3709 96.396 50.3096 96.396 47.0534C96.395 43.7972 95.1277 40.7349 92.825 38.4321Z" fill="#1CADB5"/>
<path d="M95.5875 35.6685L89.9356 41.3204C91.4668 42.8515 92.3103 44.8874 92.3103 47.0532C92.3103 49.219 91.4668 51.2549 89.9356 52.7861C88.4044 54.3172 86.3686 55.1608 84.2028 55.1608C82.0369 55.1608 80.0011 54.3172 78.4699 52.7861C78.4699 52.7861 78.4699 52.7861 78.4699 52.7851L72.818 58.437V58.438C75.8593 61.4783 79.9021 63.1534 84.2028 63.1534C88.5034 63.1534 92.5462 61.4783 95.5875 58.438C98.6278 55.3966 100.303 51.3538 100.303 47.0532C100.303 42.7526 98.6278 38.7098 95.5875 35.6685Z" fill="#001035"/>
<path d="M130.085 1.17041L110.447 20.8086L125.851 36.2122C131.01 18.7677 131.248 4.6405 131.255 4.04783C131.269 2.97042 130.847 1.93299 130.085 1.17041Z" fill="#FF193D"/>
</g>
<defs>
<clipPath id="clip0">
<rect width="131" height="131" fill="white"/>
</clipPath>
</defs>
</svg>
