<svg width="25" height="25" viewBox="0 0 25 25" fill="none" xmlns="http://www.w3.org/2000/svg">
<path d="M25 0H0V25H25V0Z" fill="#61A8DE"/>
<path d="M19.6851 5.51812L2.96724 12.0329C2.42575 12.2439 2.45856 13.021 3.01596 13.1855L7.26413 14.44L8.84955 19.4707C9.01517 19.9962 9.68107 20.1555 10.0666 19.7619L12.263 17.5192L16.5725 20.6826C17.0999 21.0697 17.851 20.7821 17.9849 20.1417L20.8392 6.49551C20.979 5.82708 20.3213 5.27017 19.6851 5.51812ZM17.5891 8.54656L9.82376 15.4134C9.74635 15.4819 9.69709 15.5766 9.68557 15.6793L9.3866 18.337C9.37684 18.4237 9.25555 18.4352 9.22966 18.3519L7.9996 14.3883C7.94326 14.2069 8.01671 14.0102 8.17816 13.9101L17.3482 8.22279C17.5591 8.0919 17.775 8.3822 17.5891 8.54656Z" fill="white"/>
</svg>
